<svg xmlns="http://www.w3.org/2000/svg" viewBox="0 0 107 103.66"><defs><style>.cls-1{fill:#c9cdd0;}</style></defs><title>ecency_logo</title><g id="Layer_2" data-name="Layer 2"><g id="Layer_1-2" data-name="Layer 1"><path class="cls-1" d="M67.49,103.52c-13.16.11-44.19.39-51.15-.42C10.69,102.44.28,98.67.16,84.45c-.08-8.19-.55-41.59.62-49,2.43-15.4,6.56-25.06,24.16-33C39.88-4,71.78,1.37,75.23,27.15c.65,4.9,1.83,5.45,3.63,5.83,28.55,6,34.86,38.23,21.25,55.8C91.45,100,82.1,102.14,67.49,103.52ZM62.3,35.88C63.29,19.1,46.27,7,29.08,16,16.81,22.37,15.75,31.66,15,42.24c-1,13.4-.37,23.16-.14,36.59.11,6,1.85,9.67,8.3,10.25,1.67.15,24.74,0,36.73.09,15.63.08,35-7.12,31.93-26.15A18.46,18.46,0,0,0,76.08,48.14a3.07,3.07,0,0,0-3.22,1.44C62.74,70.49,40.38,69.45,31.29,58c-8.18-10.28-3.94-27.27,6.81-30.87,4-1.36,7.43-.16,9.09,2.71,2.68,4.64.18,8.83-3.62,11.14s-3.57,5.71-2,8c3.73,5.23,11.07,4.19,15.72-.4C61.07,44.83,62,40.57,62.3,35.88Z"/></g></g></svg>