<svg xmlns="http://www.w3.org/2000/svg" xmlns:xlink="http://www.w3.org/1999/xlink" viewBox="0 0 148.85 148.85"><defs><style>.cls-1{fill:url(#linear-gradient);}.cls-2{fill:#fff;}</style><linearGradient id="linear-gradient" x1="138.91" y1="90.03" x2="38.59" y2="65.76" gradientUnits="userSpaceOnUse"><stop offset="0" stop-color="#007cf2"/><stop offset="0.52" stop-color="#0060e3"/><stop offset="1" stop-color="#004bd8"/></linearGradient></defs><title>ecency_logo_circle</title><g id="Layer_2" data-name="Layer 2"><g id="Layer_1-2" data-name="Layer 1"><circle class="cls-1" cx="74.43" cy="74.43" r="74.43"/><path class="cls-2" d="M88.27,105.71c-9,.08-30.35.27-35.13-.29-3.88-.46-11-3-11.11-12.81C42,87,41.66,64,42.46,59,44.13,48.4,47,41.77,59.05,36.33c10.26-4.44,32.17-.78,34.54,16.93.45,3.37,1.25,3.74,2.49,4,19.61,4.13,24,26.26,14.6,38.32C104.73,103.26,98.31,104.76,88.27,105.71ZM84.71,59.25c.68-11.52-11-19.82-22.82-13.66-8.42,4.39-9.15,10.76-9.68,18-.67,9.2-.25,15.91-.09,25.13.07,4.13,1.27,6.64,5.7,7,1.14.1,17,0,25.22.06,10.74.06,24.06-4.89,21.93-18a12.68,12.68,0,0,0-10.8-10.22,2.12,2.12,0,0,0-2.21,1C85,83,69.66,82.31,63.41,74.46c-5.61-7.06-2.7-18.73,4.68-21.2,2.78-.94,5.11-.11,6.25,1.86,1.84,3.18.11,6.06-2.49,7.65s-2.45,3.92-1.36,5.46c2.56,3.59,7.6,2.88,10.79-.28C83.87,65.4,84.52,62.47,84.71,59.25Z"/></g></g></svg>