<svg width="40" height="28" viewBox="0 0 40 28" fill="none"
    xmlns="http://www.w3.org/2000/svg">
    <path d="M15.6819 18.8809L15.68 8.1092L26.1521 13.514L15.6819 18.8809ZM38.6762 6.24311C38.6762 6.24311 38.2969 3.60138 37.1363 2.43887C35.6627 0.912244 34.0109 0.904658 33.2524 0.815526C27.8286 0.426758 19.6929 0.426758 19.6929 0.426758H19.6758C19.6758 0.426758 11.5401 0.426758 6.11633 0.815526C5.35776 0.904658 3.70786 0.912244 2.23244 2.43887C1.07182 3.60138 0.692536 6.24311 0.692536 6.24311C0.692536 6.24311 0.305664 9.34567 0.305664 12.4482V15.3574C0.305664 18.4599 0.692536 21.5625 0.692536 21.5625C0.692536 21.5625 1.06993 24.2042 2.23244 25.3667C3.70786 26.8933 5.64412 26.8459 6.50699 27.0052C9.60766 27.2992 19.6853 27.3902 19.6853 27.3902C19.6853 27.3902 27.8286 27.3788 33.2524 26.9901C34.009 26.9009 35.6608 26.8933 37.1363 25.3648C38.2969 24.2023 38.6762 21.5606 38.6762 21.5606C38.6762 21.5606 39.063 18.4599 39.063 15.3555V12.4463C39.063 9.34567 38.6762 6.24121 38.6762 6.24121V6.24311Z" fill="#F2F2F2"/>
</svg>
