<svg width="36" height="28" viewBox="0 0 36 28" fill="none"
    xmlns="http://www.w3.org/2000/svg">
    <g clip-path="url(#clip0)">
        <path d="M30.3819 3.2202C28.1629 2.20206 25.7834 1.45194 23.2955 1.02231C23.2502 1.01402 23.205 1.03474 23.1816 1.07618C22.8756 1.62047 22.5366 2.33053 22.2993 2.88864C19.6234 2.48803 16.9612 2.48803 14.3402 2.88864C14.1028 2.31812 13.7515 1.62047 13.4441 1.07618C13.4208 1.03612 13.3755 1.0154 13.3302 1.02231C10.8437 1.45056 8.4642 2.20069 6.24389 3.2202C6.22467 3.22849 6.20819 3.24232 6.19726 3.26027C1.68389 10.0031 0.44749 16.5803 1.05403 23.0759C1.05677 23.1076 1.07461 23.1381 1.09931 23.1574C4.0771 25.3442 6.9616 26.6718 9.79254 27.5518C9.83784 27.5656 9.88585 27.549 9.91468 27.5117C10.5843 26.5972 11.1813 25.633 11.6931 24.6189C11.7233 24.5595 11.6945 24.4891 11.6327 24.4656C10.6859 24.1064 9.7843 23.6685 8.91703 23.1712C8.84843 23.1311 8.84294 23.033 8.90605 22.986C9.08855 22.8493 9.27111 22.707 9.44537 22.5633C9.4769 22.5371 9.52084 22.5315 9.55791 22.5481C15.2555 25.1494 21.4238 25.1494 27.0541 22.5481C27.0912 22.5302 27.1351 22.5357 27.168 22.5619C27.3423 22.7056 27.5248 22.8493 27.7087 22.986C27.7718 23.033 27.7677 23.1311 27.6991 23.1712C26.8318 23.6782 25.9302 24.1064 24.982 24.4642C24.9203 24.4877 24.8928 24.5595 24.923 24.6189C25.4458 25.6315 26.0428 26.5958 26.7001 27.5103C26.7275 27.549 26.7769 27.5656 26.8222 27.5518C29.6669 26.6718 32.5514 25.3442 35.5292 23.1574C35.5552 23.1381 35.5717 23.109 35.5745 23.0772C36.3004 15.5676 34.3586 9.04443 30.4271 3.26164C30.4175 3.24232 30.4011 3.22849 30.3819 3.2202ZM12.5439 19.1207C10.8286 19.1207 9.41517 17.5459 9.41517 15.6119C9.41517 13.6778 10.8012 12.103 12.5439 12.103C14.3004 12.103 15.7001 13.6916 15.6727 15.6119C15.6727 17.5459 14.2867 19.1207 12.5439 19.1207ZM24.112 19.1207C22.3967 19.1207 20.9833 17.5459 20.9833 15.6119C20.9833 13.6778 22.3692 12.103 24.112 12.103C25.8685 12.103 27.2682 13.6916 27.2408 15.6119C27.2408 17.5459 25.8685 19.1207 24.112 19.1207Z" fill="#F2F2F2"/>
    </g>
    <defs>
        <clipPath id="clip0">
            <rect width="34.8142" height="26.9688" fill="white" transform="translate(0.910156 0.818359)"/>
        </clipPath>
    </defs>
</svg>
