<svg width="22" height="25" viewBox="0 0 22 25" fill="none"
    xmlns="http://www.w3.org/2000/svg">
    <g clip-path="url(#clip0)">
        <path d="M21.4674 18.0949C20.9049 19.3442 20.6338 19.9026 19.9103 21.0052C18.8974 22.5459 17.4688 24.4698 15.7038 24.4821C14.1325 24.4963 13.727 23.4569 11.5931 23.4753C9.46137 23.4855 9.01708 24.5024 7.44372 24.4861C5.67675 24.4698 4.32554 22.7375 3.31264 21.1988C0.479782 16.8843 0.180192 11.8259 1.93086 9.13572C3.16998 7.22812 5.12852 6.10721 6.96886 6.10721C8.84385 6.10721 10.0218 7.13641 11.5707 7.13641C13.0748 7.13641 13.9899 6.10517 16.1583 6.10517C17.7969 6.10517 19.5292 6.99782 20.7683 8.53857C16.7167 10.76 17.375 16.546 21.4674 18.0949ZM14.5116 4.38304C15.3003 3.37014 15.8995 1.94148 15.6814 0.486328C14.3954 0.573963 12.8914 1.39529 12.013 2.45914C11.2161 3.42924 10.5558 4.86809 10.8126 6.26006C12.2168 6.3049 13.6699 5.46727 14.5116 4.38304Z" fill="#A6ACAF"/>
    </g>
    <defs>
        <clipPath id="clip0">
            <rect width="20.6227" height="24" fill="white" transform="translate(0.844727 0.486328)"/>
        </clipPath>
    </defs>
</svg>
