<svg width="34" height="29" viewBox="0 0 34 29" fill="none"
    xmlns="http://www.w3.org/2000/svg">
    <g clip-path="url(#clip0)">
        <path d="M28.3118 5.69035C29.6684 4.84943 30.7098 3.51474 31.2002 1.92558C29.9296 2.70415 28.5258 3.27207 27.026 3.57541C25.8311 2.25251 24.1223 1.42676 22.2315 1.42676C18.6066 1.42676 15.6642 4.47531 15.6642 8.23335C15.6642 8.76756 15.7198 9.28492 15.8328 9.78374C10.3727 9.49894 5.5344 6.79249 2.29204 2.66876C1.72581 3.67821 1.40393 4.84775 1.40393 6.09481C1.40393 8.45579 2.56336 10.5387 4.3261 11.7605C3.25093 11.7268 2.23643 11.4184 1.34832 10.9112V10.9954C1.34832 14.2951 3.61325 17.047 6.61967 17.6689C6.06861 17.829 5.48889 17.9082 4.88896 17.9082C4.46597 17.9082 4.05309 17.8677 3.65201 17.7868C4.48788 20.4899 6.9129 22.4583 9.78788 22.5122C7.5398 24.339 4.70527 25.4276 1.62975 25.4276C1.10059 25.4276 0.574806 25.3973 0.0625 25.3349C2.9695 27.2628 6.42419 28.3902 10.1317 28.3902C22.2163 28.3902 28.8224 18.0194 28.8224 9.02371L28.8055 8.14066C30.0897 7.18009 31.2036 5.98358 32.0816 4.61687C30.9053 5.15783 29.638 5.5252 28.3101 5.68867L28.3118 5.69035Z" fill="#F2F2F2"/>
    </g>
    <defs>
        <clipPath id="clip0">
            <rect width="33.0905" height="28.3633" fill="white" transform="translate(0.09375 0.636719)"/>
        </clipPath>
    </defs>
</svg>
