<svg width="40" height="28" viewBox="0 0 40 28" fill="none" xmlns="http://www.w3.org/2000/svg">
<path d="M15.6736 18.9872L15.6717 8.1563L26.2014 13.5908L15.6736 18.9872ZM38.7942 6.27995C38.7942 6.27995 38.4128 3.62371 37.2459 2.45481C35.7642 0.919795 34.1034 0.912167 33.3406 0.822545C27.887 0.431641 19.7066 0.431641 19.7066 0.431641H19.6895C19.6895 0.431641 11.5091 0.431641 6.05548 0.822545C5.29274 0.912167 3.63378 0.919795 2.15025 2.45481C0.983258 3.62371 0.601888 6.27995 0.601888 6.27995C0.601888 6.27995 0.212891 9.39956 0.212891 12.5192V15.4443C0.212891 18.5639 0.601888 21.6835 0.601888 21.6835C0.601888 21.6835 0.981352 24.3397 2.15025 25.5086C3.63378 27.0437 5.58068 26.996 6.4483 27.1562C9.566 27.4517 19.699 27.5433 19.699 27.5433C19.699 27.5433 27.887 27.5318 33.3406 27.1409C34.1015 27.0513 35.7623 27.0437 37.2459 25.5067C38.4128 24.3378 38.7942 21.6816 38.7942 21.6816C38.7942 21.6816 39.1832 18.5639 39.1832 15.4424V12.5173C39.1832 9.39956 38.7942 6.27805 38.7942 6.27805V6.27995Z" fill="#A6ACAF"/>
</svg>
