<svg width="36" height="28" viewBox="0 0 36 28" fill="none" xmlns="http://www.w3.org/2000/svg">
<g clip-path="url(#clip0)">
<path d="M30.4432 3.2401C28.2121 2.21637 25.8195 1.46212 23.318 1.03013C23.2724 1.0218 23.2269 1.04263 23.2034 1.0843C22.8957 1.63158 22.5549 2.34554 22.3162 2.90671C19.6256 2.5039 16.9488 2.5039 14.3134 2.90671C14.0747 2.33307 13.7215 1.63158 13.4124 1.0843C13.3889 1.04402 13.3434 1.02319 13.2979 1.03013C10.7977 1.46074 8.40512 2.21498 6.17261 3.2401C6.15328 3.24844 6.13672 3.26234 6.12572 3.28038C1.58756 10.0603 0.344361 16.6736 0.954231 23.2049C0.95699 23.2368 0.974927 23.2674 0.999764 23.2868C3.99392 25.4857 6.89427 26.8206 9.74076 27.7054C9.78631 27.7193 9.83458 27.7026 9.86357 27.6651C10.5369 26.7456 11.1371 25.776 11.6518 24.7564C11.6821 24.6967 11.6531 24.6259 11.5911 24.6022C10.639 24.2411 9.73247 23.8008 8.86044 23.3007C8.79147 23.2604 8.78594 23.1618 8.8494 23.1146C9.03291 22.977 9.21646 22.834 9.39169 22.6895C9.42339 22.6631 9.46757 22.6576 9.50484 22.6742C15.2337 25.2898 21.4359 25.2898 27.0972 22.6742C27.1345 22.6562 27.1786 22.6617 27.2117 22.6881C27.387 22.8326 27.5705 22.977 27.7554 23.1146C27.8188 23.1618 27.8147 23.2604 27.7457 23.3007C26.8737 23.8105 25.9671 24.2411 25.0137 24.6009C24.9516 24.6245 24.924 24.6967 24.9544 24.7564C25.4801 25.7746 26.0803 26.7441 26.7412 27.6637C26.7688 27.7026 26.8185 27.7193 26.864 27.7054C29.7243 26.8206 32.6246 25.4857 35.6188 23.2868C35.645 23.2674 35.6616 23.2382 35.6644 23.2063C36.3942 15.6554 34.4418 9.09633 30.4887 3.28177C30.4791 3.26234 30.4625 3.24844 30.4432 3.2401ZM12.5073 19.228C10.7825 19.228 9.36132 17.6445 9.36132 15.6998C9.36132 13.7552 10.7549 12.1717 12.5073 12.1717C14.2734 12.1717 15.6808 13.7691 15.6532 15.6998C15.6532 17.6445 14.2596 19.228 12.5073 19.228ZM24.1389 19.228C22.4142 19.228 20.993 17.6445 20.993 15.6998C20.993 13.7552 22.3866 12.1717 24.1389 12.1717C25.9051 12.1717 27.3124 13.7691 27.2849 15.6998C27.2849 17.6445 25.9051 19.228 24.1389 19.228Z" fill="#A6ACAF"/>
</g>
<defs>
<clipPath id="clip0">
<rect width="35.0055" height="27.1169" fill="white" transform="translate(0.80957 0.825195)"/>
</clipPath>
</defs>
</svg>
