<svg width="34" height="30" viewBox="0 0 34 30" fill="none" xmlns="http://www.w3.org/2000/svg">
<g clip-path="url(#clip0)">
<path d="M28.7307 5.71866C30.0947 4.87312 31.1419 3.5311 31.635 1.93321C30.3574 2.71605 28.9459 3.28709 27.4378 3.5921C26.2364 2.26193 24.5182 1.43164 22.617 1.43164C18.9722 1.43164 16.0136 4.49695 16.0136 8.27563C16.0136 8.81278 16.0695 9.33298 16.1831 9.83455C10.693 9.54818 5.82814 6.82685 2.56796 2.68047C1.99862 3.69546 1.67497 4.87143 1.67497 6.12534C1.67497 8.4993 2.84077 10.5937 4.6132 11.8222C3.53212 11.7883 2.51205 11.4782 1.61906 10.9682V11.0529C1.61906 14.3707 3.89643 17.1377 6.91938 17.763C6.36528 17.924 5.78238 18.0036 5.17915 18.0036C4.75384 18.0036 4.33869 17.9629 3.93541 17.8816C4.77587 20.5996 7.21422 22.5787 10.105 22.6329C7.84456 24.4697 4.99445 25.5644 1.90203 25.5644C1.36997 25.5644 0.841293 25.5339 0.326172 25.4712C3.24914 27.4097 6.72282 28.5433 10.4507 28.5433C22.6018 28.5433 29.2441 18.1154 29.2441 9.07034L29.2272 8.18243C30.5183 7.21658 31.6384 6.0135 32.5212 4.63928C31.3385 5.18321 30.0642 5.55261 28.729 5.71697L28.7307 5.71866Z" fill="#A6ACAF"/>
</g>
<defs>
<clipPath id="clip0">
<rect width="33.2723" height="28.5191" fill="white" transform="translate(0.356445 0.636719)"/>
</clipPath>
</defs>
</svg>
