<svg width="33" height="28" viewBox="0 0 33 28" fill="none" xmlns="http://www.w3.org/2000/svg">
<g clip-path="url(#clip0)">
<path d="M12.6753 25.8576C11.7255 25.8576 11.887 25.499 11.5594 24.5946L8.7666 15.4034L30.2647 2.64941" fill="#788187"/>
<path d="M12.6758 25.8576C13.4087 25.8576 13.7324 25.5224 14.1416 25.1247L18.0503 21.3239L13.1746 18.3838" fill="#535E65"/>
<path d="M13.1743 18.3868L24.9885 27.1153C26.3368 27.8591 27.3096 27.4739 27.6455 25.8637L32.4545 3.20202C32.9467 1.2281 31.702 0.332507 30.4121 0.918086L2.17389 11.8066C0.246384 12.5798 0.257866 13.6552 1.82259 14.1343L9.06916 16.3962L25.8458 5.81208C26.6378 5.3318 27.3648 5.58977 26.7682 6.11941" fill="#A6ACAF"/>
</g>
<defs>
<clipPath id="clip0">
<rect width="32.084" height="27.3308" fill="white" transform="translate(0.582031 0.636719)"/>
</clipPath>
</defs>
</svg>
