<svg width="25" height="25" viewBox="0 0 25 25" fill="none"
    xmlns="http://www.w3.org/2000/svg">
    <g clip-path="url(#clip0)">
        <path d="M7.97164 0.0270905C7.90977 0.0383405 7.84601 0.0495905 7.79164 0.0870905C7.57227 0.235216 7.52352 0.542716 7.67164 0.762091L8.70664 2.30709C7.10727 3.15459 5.91477 4.56272 5.52664 6.25209H18.7866C18.3985 4.56272 17.206 3.15459 15.6066 2.30709L16.6416 0.762091C16.7898 0.542716 16.741 0.235216 16.5216 0.0870905C16.3004 -0.0610346 15.9948 0.00271552 15.8466 0.222091L14.7066 1.90209C13.9154 1.61334 13.0566 1.45209 12.1566 1.45209C11.2566 1.45209 10.3979 1.61334 9.60664 1.90209L8.46664 0.222091C8.35602 0.0570905 8.15539 -0.00853448 7.97164 0.0270905ZM9.51664 3.85209C9.91414 3.85209 10.2366 4.17459 10.2366 4.57209C10.2366 4.97147 9.91414 5.29209 9.51664 5.29209C9.11727 5.29209 8.79664 4.97147 8.79664 4.57209C8.79664 4.17459 9.11727 3.85209 9.51664 3.85209ZM14.7966 3.85209C15.196 3.85209 15.5166 4.17459 15.5166 4.57209C15.5166 4.97147 15.196 5.29209 14.7966 5.29209C14.3991 5.29209 14.0766 4.97147 14.0766 4.57209C14.0766 4.17459 14.3991 3.85209 14.7966 3.85209ZM3.99664 7.21209C3.20164 7.21209 2.55664 7.85709 2.55664 8.65209V15.3721C2.55664 16.1671 3.20164 16.8121 3.99664 16.8121C4.16539 16.8121 4.32664 16.7765 4.47664 16.7221V7.30209C4.32664 7.24771 4.16539 7.21209 3.99664 7.21209ZM5.43664 7.21209V17.7721C5.43664 18.5652 6.08352 19.2121 6.87664 19.2121H17.4366C18.2298 19.2121 18.8766 18.5652 18.8766 17.7721V7.21209H5.43664ZM20.3166 7.21209C20.1479 7.21209 19.9866 7.24771 19.8366 7.30209V16.7221C19.9866 16.7746 20.1479 16.8121 20.3166 16.8121C21.1116 16.8121 21.7566 16.1671 21.7566 15.3721V8.65209C21.7566 7.85709 21.1116 7.21209 20.3166 7.21209ZM7.35664 20.1721V22.0921C7.35664 23.1515 8.21727 24.0121 9.27664 24.0121C10.336 24.0121 11.1966 23.1515 11.1966 22.0921V20.1721H7.35664ZM13.1166 20.1721V22.0921C13.1166 23.1515 13.9773 24.0121 15.0366 24.0121C16.096 24.0121 16.9566 23.1515 16.9566 22.0921V20.1721H13.1166Z" fill="#A6ACAF"/>
    </g>
    <defs>
        <clipPath id="clip0">
            <rect width="24" height="24" fill="white" transform="translate(0.15625 0.0117188)"/>
        </clipPath>
    </defs>
</svg>
