<svg width="22" height="25" viewBox="0 0 22 25" fill="none" xmlns="http://www.w3.org/2000/svg">
<path d="M21.5611 18.0949C20.9986 19.3442 20.7276 19.9026 20.0041 21.0052C18.9912 22.5459 17.5625 24.4698 15.7976 24.4821C14.2263 24.4963 13.8207 23.4569 11.6869 23.4753C9.55512 23.4855 9.11083 24.5024 7.53747 24.4861C5.7705 24.4698 4.41929 22.7375 3.40639 21.1988C0.573532 16.8843 0.273942 11.8259 2.02461 9.13572C3.26373 7.22812 5.22227 6.10721 7.06261 6.10721C8.9376 6.10721 10.1156 7.13641 11.6645 7.13641C13.1685 7.13641 14.0836 6.10517 16.2521 6.10517C17.8906 6.10517 19.623 6.99782 20.8621 8.53857C16.8105 10.76 17.4688 16.546 21.5611 18.0949ZM14.6053 4.38304C15.3941 3.37014 15.9932 1.94148 15.7752 0.486328C14.4892 0.573963 12.9851 1.39529 12.1067 2.45914C11.3099 3.42924 10.6495 4.86809 10.9063 6.26006C12.3105 6.3049 13.7636 5.46727 14.6053 4.38304Z" fill="#1B68DA"/>
</svg>
