<svg xmlns="http://www.w3.org/2000/svg" xmlns:xlink="http://www.w3.org/1999/xlink" viewBox="0 0 148.85 148.85"><defs><style>.cls-1{fill:url(#linear-gradient);}.cls-2{fill:#fff;}</style><linearGradient id="linear-gradient" x1="138.91" y1="90.03" x2="38.59" y2="65.76" gradientUnits="userSpaceOnUse"><stop offset="0" stop-color="#007cf2"/><stop offset="0.52" stop-color="#0060e3"/><stop offset="1" stop-color="#004bd8"/></linearGradient></defs><title>ecency_logo_circle_1</title><g id="Layer_2" data-name="Layer 2"><g id="Layer_1-2" data-name="Layer 1"><circle class="cls-1" cx="74.43" cy="74.43" r="74.43"/><path class="cls-2" d="M87.79,105.44c-9,.08-30.39.27-35.18-.29-3.88-.45-11-3-11.12-12.82-.06-5.63,0-28.5.84-33.57C44,48.16,49.84,40,60,35.09c11.3-5.5,30.75.1,33.12,17.83.45,3.37,1.25,3.74,2.49,4,19.64,4.14,24,26.3,14.62,38.38C104.27,103,97.84,104.49,87.79,105.44ZM84.23,58.92C84.9,47.38,72.7,37.65,61.9,45.47A23.15,23.15,0,0,0,52.09,63.4c-.67,9.22-.66,15.82-.5,25.06.07,4.13,1.27,6.65,5.7,7.05,1.15.1,17,0,25.26.06,10.75.06,24.1-4.9,22-18A12.71,12.71,0,0,0,93.7,67.35a2.12,2.12,0,0,0-2.21,1C84.53,82.72,69.15,82,62.9,74.15c-5.63-7.07-2.71-18.76,4.68-21.23,2.79-.94,5.11-.11,6.26,1.86,1.84,3.19.11,6.08-2.5,7.67S68.89,66.37,70,67.91c2.57,3.6,7.61,2.89,10.81-.28C83.38,65.08,84,62.15,84.23,58.92Z"/></g></g></svg>