<?xml version="1.0" encoding="UTF-8" standalone="no"?>
<!-- Creator: CorelDRAW 2020 (64 Bit) -->

<svg
   xmlns:dc="http://purl.org/dc/elements/1.1/"
   xmlns:cc="http://creativecommons.org/ns#"
   xmlns:rdf="http://www.w3.org/1999/02/22-rdf-syntax-ns#"
   xmlns:svg="http://www.w3.org/2000/svg"
   xmlns="http://www.w3.org/2000/svg"
   xmlns:sodipodi="http://sodipodi.sourceforge.net/DTD/sodipodi-0.dtd"
   xmlns:inkscape="http://www.inkscape.org/namespaces/inkscape"
   xml:space="preserve"
   width="210mm"
   height="297mm"
   version="1.1"
   style="shape-rendering:geometricPrecision; text-rendering:geometricPrecision; image-rendering:optimizeQuality; fill-rule:evenodd; clip-rule:evenodd"
   viewBox="0 0 21000 29700"
   id="svg52"
   sodipodi:docname="POB SVG.svg"
   inkscape:version="0.92.5 (2060ec1f9f, 2020-04-08)"><metadata
   id="metadata56"><rdf:RDF><cc:Work
       rdf:about=""><dc:format>image/svg+xml</dc:format><dc:type
         rdf:resource="http://purl.org/dc/dcmitype/StillImage" /></cc:Work></rdf:RDF></metadata><sodipodi:namedview
   pagecolor="#ffffff"
   bordercolor="#666666"
   borderopacity="1"
   objecttolerance="10"
   gridtolerance="10"
   guidetolerance="10"
   inkscape:pageopacity="0"
   inkscape:pageshadow="2"
   inkscape:window-width="1280"
   inkscape:window-height="960"
   id="namedview54"
   showgrid="false"
   inkscape:zoom="4.7572176"
   inkscape:cx="392.5364"
   inkscape:cy="555.537"
   inkscape:window-x="0"
   inkscape:window-y="0"
   inkscape:window-maximized="1"
   inkscape:current-layer="svg52" />
 <defs
   id="defs11">
  <style
   type="text/css"
   id="style2">
   <![CDATA[
    .str0 {stroke:blue;stroke-width:20;stroke-miterlimit:22.9256}
    .fil2 {fill:blue}
    .fil1 {fill:white}
    .fil0 {fill:url(#id0)}
   ]]>
  </style>
  <radialGradient
   id="id0"
   gradientUnits="objectBoundingBox"
   cx="50%"
   cy="50%"
   r="50%"
   fx="50%"
   fy="50%">
   <stop
   offset="0"
   style="stop-opacity:1; stop-color:#FEFEFE"
   id="stop4" />
   <stop
   offset="0.54902"
   style="stop-opacity:1; stop-color:#7F7FFF"
   id="stop6" />
   <stop
   offset="1"
   style="stop-opacity:1; stop-color:blue"
   id="stop8" />
  </radialGradient>
 </defs>
 <g
   id="Camada_x0020_1"
   inkscape:export-filename="/home/shawn/Source/ecency-vision/public/favicon-104.png"
   inkscape:export-xdpi="85.333488"
   inkscape:export-ydpi="85.333488">
  <metadata
   id="CorelCorpID_0Corel-Layer" />
  <g
   id="_2003919508960">
   <path
   class="fil0"
   d="M10169.46 13089.55c854.83,0 1547.81,692.98 1547.81,1547.81 0,854.83 -692.98,1547.81 -1547.81,1547.81 -854.83,0 -1547.81,-692.98 -1547.81,-1547.81 0,-854.83 692.98,-1547.81 1547.81,-1547.81z"
   id="path14" />
   <g
   id="g48">
    <path
   class="fil1 str0"
   d="M9815.1 14282.72c8.09,48.65 -4.19,43.05 -46.51,51.15 -28.88,5.54 -66.17,-0.66 -85.28,16.38 -27.83,24.82 -24.53,134.42 -88.67,93.62 -5.33,-39.58 21.41,-39.82 29.59,-82.06 22.08,-114.17 -98.49,-176.42 -98.65,-176.62 -25.36,-31.93 27.61,-68.15 84.39,-9.19 19.72,20.47 26.65,38.75 40.85,68.98 31.47,67.03 121.36,20.38 164.28,37.74zm-83.93 -471.92l13.06 1c-53.17,29.02 -81.97,139.82 -23.58,178.52 29.21,19.36 57.01,25.73 78.32,49.44 14.59,16.24 40.5,60.15 19.17,88.44 -29.25,1.32 -29.37,-19.97 -45.44,-40.14 -44.83,-56.28 -111.09,-80.13 -188.86,-66.62 -24.28,4.22 -54.16,18.29 -69.38,20.17 -29.03,3.57 -42.28,-27.39 -22.01,-45.01 32.76,-28.47 109.66,-19.54 141.72,-29.98 7.66,-33.64 -7.03,-56.75 9.09,-96.59 15.2,-37.55 32.03,-31.27 53.19,-53.08 -29.33,2.33 -75.09,21.55 -101.16,31.43 -140.51,53.29 -139.91,86.64 -250.1,146.19 -15.15,8.19 -26.58,16.19 -39.88,26.16 -41.25,30.94 -68.5,56.17 -101.5,96.64 -40.63,49.84 -52.79,68.52 -67.9,130.24 -7.35,30.01 -12.37,27.22 -12.37,55.38l8 -20.66c27.29,198.64 179.76,232.48 247.4,159.86 54.28,-58.27 -33.32,-123.13 -56.29,-146.27 -35.14,-35.42 -47.26,-96.59 -14.4,-131.37 5.98,-6.34 10.14,-10.23 19.28,-12.03 47.93,-9.43 5.51,39.95 12.27,72.93 11.4,55.69 93.35,81.21 105.89,159.53 17.06,106.55 -92.68,129.59 -117.55,147.42 -75.57,54.18 -1.54,172.89 -19.19,196.18 -39.72,52.41 -60.85,-67.85 -62.7,-92.48 -2.12,-28.42 1.68,-57.96 -2.32,-85.69 -6.08,-42.15 -14.84,-29.35 -40.87,-46.85 -28.81,-19.38 -56.92,-54.3 -68.43,-101 -17.85,8.94 -24.05,21.86 -33.17,39.56 -41,79.52 -42.7,160.57 -20.14,249.23 9.67,37.99 56.79,115.56 92.79,133.91l6.67 -9.1c37.35,9.39 78.21,43.88 125.24,55.73 125.01,31.48 123.25,-81.53 183.28,-165.27 62.98,-87.86 -7.76,-107.94 21.65,-131.83 30.18,-10.1 57.34,8.01 85.49,15.22 172.1,44.09 241.57,-85.39 293.47,-125.55 58.8,-45.51 117.04,-44.18 77.61,-117.33 -14.82,-27.49 -31.55,-30.49 -29.91,-76.09 -28.68,8.95 -48,14.16 -45.73,-8.16 0.88,-8.72 9.86,-17.01 15.58,-23.03 64.34,-67.69 115.98,-195.27 65.59,-272.72 -12.89,-19.81 -50.96,-49.31 -54.35,-56.42 -13.49,-28.24 14.41,-50.11 45.99,-27.97 67.72,47.45 74.43,129.58 78.02,133.59 28.03,14.3 62.15,9.8 96.35,22.82 59.37,22.6 107.93,82.36 89.78,139.38 -8.34,26.21 -29.19,57.62 -60.23,54.95 -38.38,-35.22 8.42,-42.39 13.08,-73.28 10.59,-70.14 -145.3,-135.73 -175.07,11.76 -46.65,231.12 145.82,229.62 210.21,178.99 7.48,-5.87 8.88,-9.09 15.99,-14.69 29.66,-23.32 8.11,-1.09 40.77,-42.95 142.85,-183.11 332.36,-15.7 381.32,4.56 102.04,42.22 107.87,-84.3 110.57,-94.09 68.56,-28.93 99.96,69.03 15.79,117.34 -21.95,12.6 -71.69,20.36 -80.53,43.08 -14.06,36.08 20.92,85.99 -27.31,93.73 -34.65,-13.5 -27.33,-97 -86,-127.92 -28.11,-14.82 -37.05,-27.72 -72.67,-37.44 -86.55,-23.62 -187.18,9.35 -222.38,81.2 -48.61,99.23 28.22,123.98 12.16,161.57 -20.61,48.23 -88.45,-24.25 -135.33,-46.91 -86.25,-41.69 -289.9,36.73 -277.65,119.3 5,33.71 86.91,115.86 50.55,141.81 -27.77,6.48 -40.35,-6.94 -52.48,-21.12 -27.26,-31.88 -90.81,-77.55 -137.75,-87.06 -41.4,-8.4 -92.19,-2.71 -116.72,21.82 -7.74,7.74 -10.07,12.3 -19.15,20.51 -111.65,100.98 -144.17,275.42 -43.5,383.88 34.21,36.87 66.76,56.16 69.06,74.71 40.65,16.24 124.84,29.9 174.56,23.32 23.14,-3.06 36.23,0.18 57.21,-10.42 0.78,-0.4 2.24,-1.11 3.13,-1.96 -6.48,-4.3 -7.58,1.37 19.77,-13 99.15,-52.11 78.69,-157.71 30.15,-180.02 -47.73,-21.94 -85.25,-22.52 -128.8,1.84 -43.72,24.47 -61.24,88.33 -92.74,69.34 -20.14,-24.28 -2.82,-52.46 17.31,-74.18 11.2,-12.09 17.13,-17.3 32.24,-29.44 49.56,-39.82 -16.14,-58.88 -25.45,-87.43 -9.03,-27.7 10.13,-42.78 34,-39.14 18.26,9.36 8.68,11.55 24.01,25.53 9.27,8.46 18.35,13.82 27.34,21.11 15.08,12.23 39.83,26.4 65.16,31.83 108.4,23.23 214.66,26.14 266.52,-84.3 42.73,-91.02 -20.84,-96.08 -5.8,-151.87 65.98,-30.25 65.49,54.85 93.59,93.11 63.38,86.32 187.42,72.83 255.24,-43.02 41.55,-70.98 -5.99,-139.37 12.15,-167.87 36.33,-36.14 52.68,24.69 57.28,57.71 10.25,73.46 -40.87,153.59 33.65,204.32 36.25,24.68 65.12,6.57 96.69,-8.9 62.45,-30.6 151.26,-23.08 202.02,14.01 21.12,15.43 40.3,46.06 52.22,75.39 11.74,28.88 25.97,81.4 -18.62,84.89 -25.41,-19.95 -32.99,-87.01 -60.25,-116.03 -31.52,-33.53 -90.46,-24.93 -132.11,-1.74 -54.62,30.4 -66.03,42.32 -91.83,84.42 -59.25,96.7 -112.51,78.72 -97.51,48.38 0.06,-0.14 8.67,-12.84 10.9,-16.14 7.37,-10.94 12.51,-16.97 19.7,-28.86 46.52,-76.91 -43.39,-127.58 -143.5,-90.58 -46.29,17.11 -116.36,27.74 -115.01,85.09 1.55,65.44 60.9,83.94 51.31,137.68 -98,24.26 -97.67,-153.51 -133.87,-171.95 -54.36,-27.68 -158.66,63.73 -181.99,115.75 -33.47,74.61 -1.8,108.26 24.91,147.54l34.68 10.46c25.11,2.69 49.66,7.49 76.68,9.51 30.48,2.29 62.57,-1.53 92.24,3.43 3.05,-1.82 96.86,-15.69 110.14,-18.24l52.15 -14.34 68.18 -31.46c11.26,-7.24 28.96,-17.2 40.8,-25.56 22.38,-15.79 16.8,-10.3 43.12,-18.18 35.09,-10.51 58.5,-32.63 103.99,-18.48 16.53,5.15 29.79,15.01 45.56,20.48 68.37,23.74 84.69,25.52 159.7,29.39 46.96,-21.65 187.14,-3.15 211.76,-263.63 11.15,-118.01 2.21,-111.99 -9.54,-220.25 -4.57,-42.14 -43.08,-153.22 -72.68,-167.63 -3.61,37.6 -18.49,59.75 -35.59,80.85 -18.64,23.01 -41,32.38 -47.35,71.18 -5.71,34.87 18.79,65.96 43.1,71.44 24.97,5.62 69.44,-33.37 67.41,26.93 -30.95,24.71 -79.77,19.26 -117.36,0.45 -39.24,-19.63 -20.17,-74.32 -74.27,-69.7 -22.52,1.92 -38.07,8.45 -66.72,9.08 -122.41,2.67 -132.85,-73.63 -87.04,-77.91 22.34,-2.09 45.79,37.41 115,21.13 67.39,-15.85 125.9,-75 151.77,-138.66 14.54,-35.79 16.43,-100.8 22.78,-115.85 -0.89,-47.79 -46.67,-153.55 -84.75,-191.19 -0.66,-0.65 -1.96,-1.84 -2.51,-2.37 -0.54,-0.54 -1.64,-1.64 -2.52,-2.4l-1.21 7.2c-17.25,-23.59 -53.46,-50.83 -99.58,-58.8 -24.62,-4.25 -53.13,-4.7 -78.03,-2.72 -29.15,2.32 -46.72,10.92 -63.21,-11.1 -14.55,-45.89 63.77,-50.68 102.85,-41.94 -25.13,-64.91 -99.06,-131.17 -159.77,-143.62 4.06,5.72 4.49,6.92 9.45,11.98 -71.88,-6.08 -229.72,-52.23 -228.15,54.08 0.69,47.29 33.53,75.38 70.21,88.11 40.6,14.1 107.22,-0.64 102.98,50.17 -21.79,28.17 -92.97,8.85 -126.55,-4.68 -81.7,-32.91 -56.82,50.85 -99.67,29.24 -11.17,-20.38 8.81,-54.12 -1.04,-91.28 -28.81,-108.72 -211.03,-74.73 -177.49,-139.39 19.53,-37.67 108.11,40.3 172.14,8.66 29.31,-14.48 32.59,-31.49 66.91,-43.23 27.02,-9.25 63.91,-11.96 93.58,-9.48 -7.08,-9.21 0.51,-1.4 -7.55,-7.75 -14.09,-11.09 -51.62,-21.79 -70.11,-27.27 -36.48,-10.8 -50.4,-11.76 -92.75,-17.33 -55.67,-7.32 -156.92,-4.06 -203.44,10.51 -47.91,15.01 -23.77,20.81 -87.12,11.46 -53.52,-7.89 -280.51,-12.26 -305.16,12.81z"
   id="path16" />
    <path
   class="fil2"
   d="M9174.11 14825.26c0.02,20.06 15.06,27.78 43.74,46.59 12.45,8.17 20.59,8.78 32.56,15.87 56.73,33.62 79.46,56.42 185.75,56.42 0,43.72 29.99,85.38 57.68,114.05 24.93,25.8 114.36,104.13 147.73,84.09 -2.3,-18.55 -34.85,-37.84 -69.06,-74.71 -100.67,-108.46 -68.15,-282.9 43.5,-383.88 9.08,-8.21 11.41,-12.77 19.15,-20.51 24.53,-24.53 75.32,-30.22 116.72,-21.82 46.94,9.51 110.49,55.18 137.75,87.06 12.13,14.18 24.71,27.6 52.48,21.12 36.36,-25.95 -45.55,-108.1 -50.55,-141.81 -12.25,-82.57 191.4,-160.99 277.65,-119.3 46.88,22.66 114.72,95.14 135.33,46.91 16.06,-37.59 -60.77,-62.34 -12.16,-161.57 35.2,-71.85 135.83,-104.82 222.38,-81.2 35.62,9.72 44.56,22.62 72.67,37.44 58.67,30.92 51.35,114.42 86,127.92 48.23,-7.74 13.25,-57.65 27.31,-93.73 8.84,-22.72 58.58,-30.48 80.53,-43.08 84.17,-48.31 52.77,-146.27 -15.79,-117.34 -2.7,9.79 -8.53,136.31 -110.57,94.09 -48.96,-20.26 -238.47,-187.67 -381.32,-4.56 -32.66,41.86 -11.11,19.63 -40.77,42.95 -7.11,5.6 -8.51,8.82 -15.99,14.69 -64.39,50.63 -256.86,52.13 -210.21,-178.99 29.77,-147.49 185.66,-81.9 175.07,-11.76 -4.66,30.89 -51.46,38.06 -13.08,73.28 31.04,2.67 51.89,-28.74 60.23,-54.95 18.15,-57.02 -30.41,-116.78 -89.78,-139.38 -34.2,-13.02 -68.32,-8.52 -96.35,-22.82 -3.59,-4.01 -10.3,-86.14 -78.02,-133.59 -31.58,-22.14 -59.48,-0.27 -45.99,27.97 3.39,7.11 41.46,36.61 54.35,56.42 50.39,77.45 -1.25,205.03 -65.59,272.72 -5.72,6.02 -14.7,14.31 -15.58,23.03 -2.27,22.32 17.05,17.11 45.73,8.16 -1.64,45.6 15.09,48.6 29.91,76.09 39.43,73.15 -18.81,71.82 -77.61,117.33 -51.9,40.16 -121.37,169.64 -293.47,125.55 -28.15,-7.21 -55.31,-25.32 -85.49,-15.22 -29.41,23.89 41.33,43.97 -21.65,131.83 -60.03,83.74 -58.27,196.75 -183.28,165.27 -47.03,-11.85 -87.89,-46.34 -125.24,-55.73l-6.67 9.1z"
   id="path18" />
    <path
   class="fil2"
   d="M9876.47 15153.22c12.09,2.42 75.64,-5.2 95.61,-7.8 39.88,-5.19 60.05,1.27 103.07,1.27 -26.71,-39.28 -58.38,-72.93 -24.91,-147.54 23.33,-52.02 127.63,-143.43 181.99,-115.75 36.2,18.44 35.87,196.21 133.87,171.95 9.59,-53.74 -49.76,-72.24 -51.31,-137.68 -1.35,-57.35 68.72,-67.98 115.01,-85.09 100.11,-37 190.02,13.67 143.5,90.58 -7.19,11.89 -12.33,17.92 -19.7,28.86 -2.23,3.3 -10.84,16 -10.9,16.14 -15,30.34 38.26,48.32 97.51,-48.38 25.8,-42.1 37.21,-54.02 91.83,-84.42 41.65,-23.19 100.59,-31.79 132.11,1.74 27.26,29.02 34.84,96.08 60.25,116.03 44.59,-3.49 30.36,-56.01 18.62,-84.89 -11.92,-29.33 -31.1,-59.96 -52.22,-75.39 -50.76,-37.09 -139.57,-44.61 -202.02,-14.01 -31.57,15.47 -60.44,33.58 -96.69,8.9 -74.52,-50.73 -23.4,-130.86 -33.65,-204.32 -4.6,-33.02 -20.95,-93.85 -57.28,-57.71 -18.14,28.5 29.4,96.89 -12.15,167.87 -67.82,115.85 -191.86,129.34 -255.24,43.02 -28.1,-38.26 -27.61,-123.36 -93.59,-93.11 -15.04,55.79 48.53,60.85 5.8,151.87 -51.86,110.44 -158.12,107.53 -266.52,84.3 -25.33,-5.43 -50.08,-19.6 -65.16,-31.83 -8.99,-7.29 -18.07,-12.65 -27.34,-21.11 -15.33,-13.98 -5.75,-16.17 -24.01,-25.53 -23.87,-3.64 -43.03,11.44 -34,39.14 9.31,28.55 75.01,47.61 25.45,87.43 -15.11,12.14 -21.04,17.35 -32.24,29.44 -20.13,21.72 -37.45,49.9 -17.31,74.18 31.5,18.99 49.02,-44.87 92.74,-69.34 43.55,-24.36 81.07,-23.78 128.8,-1.84 48.54,22.31 69,127.91 -30.15,180.02 -27.35,14.37 -26.25,8.7 -19.77,13z"
   id="path20" />
    <path
   class="fil2"
   d="M9123.54 14302.99c0,17.93 -0.83,37.93 -0.06,55.61 0.72,16.34 2.25,32.52 11.15,43.96 11.51,46.7 39.62,81.62 68.43,101 26.03,17.5 34.79,4.7 40.87,46.85 4,27.73 0.2,57.27 2.32,85.69 1.85,24.63 22.98,144.89 62.7,92.48 17.65,-23.29 -56.38,-142 19.19,-196.18 24.87,-17.83 134.61,-40.87 117.55,-147.42 -12.54,-78.32 -94.49,-103.84 -105.89,-159.53 -6.76,-32.98 35.66,-82.36 -12.27,-72.93 -9.14,1.8 -13.3,5.69 -19.28,12.03 -32.86,34.78 -20.74,95.95 14.4,131.37 22.97,23.14 110.57,88 56.29,146.27 -67.64,72.62 -220.11,38.78 -247.4,-159.86l-8 20.66z"
   id="path22" />
    <path
   class="fil2"
   d="M10614.93 13874.19l-4.3 -3.78c-26.62,-20.26 -80.13,-49.68 -113.33,-42.04 -29.67,-2.48 -66.56,0.23 -93.58,9.48 -34.32,11.74 -37.6,28.75 -66.91,43.23 -64.03,31.64 -152.61,-46.33 -172.14,-8.66 -33.54,64.66 148.68,30.67 177.49,139.39 9.85,37.16 -10.13,70.9 1.04,91.28 42.85,21.61 17.97,-62.15 99.67,-29.24 33.58,13.53 104.76,32.85 126.55,4.68 4.24,-50.81 -62.38,-36.07 -102.98,-50.17 -36.68,-12.73 -69.52,-40.82 -70.21,-88.11 -1.57,-106.31 156.27,-60.16 228.15,-54.08 -4.96,-5.06 -5.39,-6.26 -9.45,-11.98z"
   id="path24" />
    <path
   class="fil2"
   d="M11031.93 14442.19c8.72,-38.73 -11.33,-108.71 -28.27,-121.06 -6.35,15.05 -8.24,80.06 -22.78,115.85 -25.87,63.66 -84.38,122.81 -151.77,138.66 -69.21,16.28 -92.66,-23.22 -115,-21.13 -45.81,4.28 -35.37,80.58 87.04,77.91 28.65,-0.63 44.2,-7.16 66.72,-9.08 54.1,-4.62 35.03,50.07 74.27,69.7 37.59,18.81 86.41,24.26 117.36,-0.45 2.03,-60.3 -42.44,-21.31 -67.41,-26.93 -24.31,-5.48 -48.81,-36.57 -43.1,-71.44 6.35,-38.8 28.71,-48.17 47.35,-71.18 17.1,-21.1 31.98,-43.25 35.59,-80.85z"
   id="path26" />
    <path
   class="fil2 str0"
   d="M10509.22 15106.05c82.59,45.01 204.12,124.51 327.12,121.93 5.67,-5.91 5.28,-4.63 8.94,-10.77 9.76,-16.36 4.02,-2.47 4.29,-13.28 8,-11.26 15.28,-7.1 -21.27,-13.7 -10.57,-1.9 -21.64,-4.31 -33.16,-6.83 -32.6,-7.13 -172.69,-33.78 -154.63,-77.59 27.57,-38.12 84.99,-5.51 117.85,4.38 41.13,12.37 85.13,20.87 130.82,22.04 3.69,-3.37 1.47,0.34 5.57,-6.64 4.12,-7.01 -0.46,4.91 4.15,-8.72 2.26,-6.7 3.24,-11.83 3.49,-23.17 -75.01,-3.87 -91.33,-5.65 -159.7,-29.39 -15.77,-5.47 -29.03,-15.33 -45.56,-20.48 -45.49,-14.15 -68.9,7.97 -103.99,18.48 -26.32,7.88 -20.74,2.39 -43.12,18.18 -11.84,8.36 -29.54,18.32 -40.8,25.56z"
   id="path28" />
    <path
   class="fil2"
   d="M9696.45 13816.95c-21.16,21.81 -37.99,15.53 -53.19,53.08 -16.12,39.84 -1.43,62.95 -9.09,96.59 -32.06,10.44 -108.96,1.51 -141.72,29.98 -20.27,17.62 -7.02,48.58 22.01,45.01 15.22,-1.88 45.1,-15.95 69.38,-20.17 77.77,-13.51 144.03,10.34 188.86,66.62 16.07,20.17 16.19,41.46 45.44,40.14 21.33,-28.29 -4.58,-72.2 -19.17,-88.44 -21.31,-23.71 -49.11,-30.08 -78.32,-49.44 -58.39,-38.7 -29.59,-149.5 23.58,-178.52l-13.06 -1c-15.67,-3.4 -23.84,0.56 -34.72,6.15z"
   id="path30" />
    <path
   class="fil1 str0"
   d="M10278.75 15170.09l25.86 -0.71c9.4,21.12 49.5,51.06 69.87,64.83l189.09 88.4c42.82,17.28 98.42,22.43 105.81,35.42 15.69,-3.8 24.04,-7.26 37.91,-14.57 6.96,-3.67 10.18,-4.92 16.59,-9.5 15.93,-11.39 8.75,-3.13 15.6,-19.94 -30.24,9.04 -240.51,-88.05 -274.65,-108.52l-60.13 -36.82c-14.05,-8.55 -14.12,-3.69 -15.81,-16.83 -13.28,2.55 -107.09,16.42 -110.14,18.24z"
   id="path32" />
    <path
   class="fil2"
   d="M9594.64 14443.87c64.14,40.8 60.84,-68.8 88.67,-93.62 19.11,-17.04 56.4,-10.84 85.28,-16.38 42.32,-8.1 54.6,-2.5 46.51,-51.15 -42.92,-17.36 -132.81,29.29 -164.28,-37.74 -14.2,-30.23 -21.13,-48.51 -40.85,-68.98 -56.78,-58.96 -109.75,-22.74 -84.39,9.19 0.16,0.2 120.73,62.45 98.65,176.62 -8.18,42.24 -34.92,42.48 -29.59,82.06z"
   id="path34" />
    <path
   class="fil1 str0"
   d="M10441.04 15137.51c15.96,23.95 111.43,76.44 147.68,93.99 26.65,12.92 165.43,52.16 172.79,64.89 15.68,-6.39 11.2,-4.1 23.41,-16.45 6.85,-6.92 10.41,-10.82 17.27,-17.7 7.25,-7.28 10.49,-9.93 18.26,-17.08 0.68,-0.62 1.67,-1.49 2.33,-2.11l13.56 -15.07c-123,2.58 -244.53,-76.92 -327.12,-121.93l-68.18 31.46z"
   id="path36" />
    <path
   class="fil1 str0"
   d="M10175.88 15224.65c11.2,19.91 18.15,18.28 36.47,30.87 47.98,32.97 80.71,48.93 135.88,71.06 65.11,26.13 137.14,44.66 227.58,44.66 -31.11,-18.14 -121.99,-41.64 -198.67,-91.3l-86.3 -58.93c-126.47,-99.98 -110.69,-4.17 -114.96,3.64z"
   id="path38" />
    <path
   class="fil2 str0"
   d="M10175.88 15224.65c4.27,-7.81 -11.51,-103.62 114.96,-3.64l86.3 58.93c76.68,49.66 167.56,73.16 198.67,91.3 33.1,0 71.55,-3.11 93.57,-13.21 -7.39,-12.99 -62.99,-18.14 -105.81,-35.42l-189.09 -88.4c-20.37,-13.77 -60.47,-43.71 -69.87,-64.83l-25.86 0.71c-29.67,-4.96 -61.76,-1.14 -92.24,-3.43 -27.02,-2.02 -51.57,-6.82 -76.68,-9.51 5.13,15.64 18.74,23.01 29.69,34.69l36.36 32.81z"
   id="path40" />
    <path
   class="fil1 str0"
   d="M10849.57 15203.93c16.9,-10.63 37.85,-48.01 39.61,-71.7 -45.69,-1.17 -89.69,-9.67 -130.82,-22.04 -32.86,-9.89 -90.28,-42.5 -117.85,-4.38 -18.06,43.81 122.03,70.46 154.63,77.59 11.52,2.52 22.59,4.93 33.16,6.83 36.55,6.6 29.27,2.44 21.27,13.7z"
   id="path42" />
    <path
   class="fil2 str0"
   d="M10388.89 15151.85c1.69,13.14 1.76,8.28 15.81,16.83l60.13 36.82c34.14,20.47 244.41,117.56 274.65,108.52 7.21,-0.17 4.47,1.13 13,-4.79 19.98,-13.86 8.37,-2.43 9.03,-12.84 -7.36,-12.73 -146.14,-51.97 -172.79,-64.89 -36.25,-17.55 -131.72,-70.04 -147.68,-93.99l-52.15 14.34z"
   id="path44" />
    <path
   class="fil2"
   d="M10913.88 14125.17c-1.22,-26.42 -32.02,-55.43 -50.01,-71.56 -18.41,-16.5 -60.48,-37.6 -89.17,-35.8 -39.08,-8.74 -117.4,-3.95 -102.85,41.94 16.49,22.02 34.06,13.42 63.21,11.1 24.9,-1.98 53.41,-1.53 78.03,2.72 46.12,7.97 82.33,35.21 99.58,58.8l1.21 -7.2z"
   id="path46" />
   </g>
  </g>
 </g>
</svg>