<?xml version="1.0" encoding="UTF-8" standalone="no"?>
<svg
   xmlns:dc="http://purl.org/dc/elements/1.1/"
   xmlns:cc="http://creativecommons.org/ns#"
   xmlns:rdf="http://www.w3.org/1999/02/22-rdf-syntax-ns#"
   xmlns:svg="http://www.w3.org/2000/svg"
   xmlns="http://www.w3.org/2000/svg"
   xmlns:sodipodi="http://sodipodi.sourceforge.net/DTD/sodipodi-0.dtd"
   xmlns:inkscape="http://www.inkscape.org/namespaces/inkscape"
   viewBox="0 0 148.85 148.85"
   version="1.1"
   id="svg4035"
   sodipodi:docname="logo-circle.svg"
   inkscape:version="0.92.5 (2060ec1f9f, 2020-04-08)">
  <metadata
     id="metadata4039">
    <rdf:RDF>
      <cc:Work
         rdf:about="">
        <dc:format>image/svg+xml</dc:format>
        <dc:type
           rdf:resource="http://purl.org/dc/dcmitype/StillImage" />
      </cc:Work>
    </rdf:RDF>
  </metadata>
  <sodipodi:namedview
     pagecolor="#ffffff"
     bordercolor="#666666"
     borderopacity="1"
     objecttolerance="10"
     gridtolerance="10"
     guidetolerance="10"
     inkscape:pageopacity="0"
     inkscape:pageshadow="2"
     inkscape:window-width="1280"
     inkscape:window-height="959"
     id="namedview4037"
     showgrid="false"
     inkscape:zoom="4.8639568"
     inkscape:cx="74.425003"
     inkscape:cy="74.425003"
     inkscape:window-x="0"
     inkscape:window-y="0"
     inkscape:window-maximized="1"
     inkscape:current-layer="svg4035" />
  <defs
     id="defs4025">
    <style
       id="style4016">.cls-1{fill:url(#linear-gradient);}.cls-2{fill:#fff;}</style>
    <linearGradient
       id="linear-gradient"
       x1="138.91"
       y1="90.03"
       x2="38.59"
       y2="65.76"
       gradientUnits="userSpaceOnUse">
      <stop
         offset="0"
         stop-color="#007cf2"
         id="stop4018" />
      <stop
         offset="0.52"
         stop-color="#0060e3"
         id="stop4020" />
      <stop
         offset="1"
         stop-color="#004bd8"
         id="stop4022" />
    </linearGradient>
  </defs>
  <title
     id="title4027">ecency_logo_circle</title>
  <ellipse
     style="fill:#ff5555"
     id="path4007"
     cx="79.256462"
     cy="57.360706"
     rx="66.920822"
     ry="38.034878" />
  <ellipse
     style="fill:#ff5555"
     id="path4009"
     cx="117.08575"
     cy="91.489296"
     rx="26.007633"
     ry="24.465677" />
  <path
     style="fill:none;stroke:#000000;stroke-width:1px;stroke-linecap:butt;stroke-linejoin:miter;stroke-opacity:1"
     d="m 18.29786,49.136949 c 2.015733,-2.687644 -0.475179,0.665251 1.02797,-1.439157 0.199165,-0.278831 0.42671,-0.537268 0.616781,-0.822376 0.085,-0.127504 0.08593,-0.315459 0.205594,-0.411188 0.239322,-0.191457 0.55957,-0.253504 0.822376,-0.411188 0.08311,-0.04986 0.124953,-0.151833 0.205594,-0.205593 0.127504,-0.085 0.279785,-0.126753 0.411188,-0.205594 0.21188,-0.127129 0.404901,-0.28406 0.616782,-0.411188 0.131402,-0.07884 0.279785,-0.126753 0.411187,-0.205594 0.211881,-0.127129 0.387362,-0.31942 0.616782,-0.411188 0.12726,-0.0509 0.27599,0.02253 0.411188,0 0.278717,-0.04645 0.554314,-0.11624 0.822376,-0.205594 0.145377,-0.04846 0.265811,-0.157135 0.411188,-0.205594 0.06501,-0.02167 0.139108,0.01662 0.205594,0 0.210244,-0.05256 0.403015,-0.169966 0.616781,-0.205594 0.202797,-0.0338 0.421739,0.06502 0.616782,0 0.234413,-0.07814 0.387362,-0.31942 0.616782,-0.411188 0.04482,-0.01793 1.216679,0 1.233564,0 0.753844,0 1.507688,0 2.261533,0 0.616782,0 1.233563,0 1.850345,0 0.205594,0 0.411188,0 0.616782,0 0.205594,0 0.413985,-0.0338 0.616782,0 0.213766,0.03563 0.40174,0.178714 0.616782,0.205594 0.34001,0.0425 0.687959,-0.0425 1.027969,0 0.684506,0.08556 0.477855,0.227816 1.02797,0.411188 0.06501,0.02167 0.140579,-0.02167 0.205594,0 0.597178,0.199059 0.286869,0.215152 0.822376,0.616782 0.122592,0.09194 0.288595,0.113649 0.411187,0.205594 0.155069,0.116301 0.244975,0.31146 0.411188,0.411188 0.185832,0.111499 0.422946,0.108676 0.616782,0.205594 0.221007,0.110503 0.395775,0.300684 0.616782,0.411187 0.193836,0.09692 0.450297,0.06686 0.616782,0.205594 1.770766,1.475639 -0.393567,0.303775 1.233563,1.233564 0.266101,0.152057 0.567368,0.241183 0.822376,0.411188 0.161281,0.107521 0.274125,0.274125 0.411188,0.411188 0.205594,0.137062 0.404901,0.284059 0.616782,0.411188 0.131402,0.07884 0.291527,0.109865 0.411187,0.205594 0.227041,0.181632 0.411188,0.411187 0.616782,0.616781 0.137063,0.137063 0.249907,0.303667 0.411188,0.411188 0.255008,0.170005 0.583054,0.219731 0.822376,0.411188 0.119661,0.09573 0.113649,0.288595 0.205594,0.411188 0.116301,0.155069 0.259827,0.290099 0.411188,0.411188 0.192947,0.154358 0.423834,0.25683 0.616781,0.411188 0.151361,0.121088 0.274126,0.274125 0.411188,0.411187 0.533014,0.533014 1.013742,1.006628 1.439158,1.644752 0.408171,0.185292 0.07923,0.569645 0.205594,0.822376 0.08669,0.173372 0.303667,0.249906 0.411188,0.411188 0.03801,0.05702 -0.01344,0.138393 0,0.205593 0.05541,0.277075 0.150179,0.545302 0.205594,0.822376 0.0731,0.3655 -0.219301,0.274125 0,0.822376 0.07199,0.179972 0.303667,0.249907 0.411187,0.411188 0.02543,0.03814 -0.0029,0.810725 0,0.822375 0.205369,0.821474 0.207172,0.0032 0.616782,0.822376 0.08735,0.174696 -0.06812,0.823596 0,1.02797 0.03065,0.09194 0.182088,0.11157 0.205594,0.205594 0.04986,0.199455 0,0.411188 0,0.616782 0,0.54825 0,1.096501 0,1.644751 0,0.215224 -0.0418,1.066374 0,1.233564 0.08298,0.331916 0.202198,0.407791 0.411188,0.616781"
     id="path4011"
     inkscape:connector-curvature="0" />
  <path
     style="fill:none;stroke:#000000;stroke-width:1px;stroke-linecap:butt;stroke-linejoin:miter;stroke-opacity:1"
     d="m 71.546688,58.183082 c 0.125441,-0.467298 -0.09408,-0.968754 0,-1.439157 0.03005,-0.150265 0.168428,-0.262523 0.205594,-0.411188 0.03324,-0.13297 0,-0.274125 0,-0.411188 0,-0.411188 0,-0.822376 0,-1.233563 0,-1.370627 0,-2.741253 0,-4.111879 0,-0.548251 0.229749,-1.146962 0,-1.644751 -0.224299,-0.485983 -0.907218,-0.603721 -1.233564,-1.02797 -0.747459,-0.971698 -0.923696,-2.298053 -1.644751,-3.289503 -0.201541,-0.277119 -0.580081,-0.374487 -0.822376,-0.616782 -0.310288,-0.310289 -0.552969,-0.68159 -0.822375,-1.027969 -0.130378,-0.167628 -0.884371,-1.151959 -1.02797,-1.439158 -0.09692,-0.193836 -0.06686,-0.450297 -0.205594,-0.616782 -0.219363,-0.263236 -0.580081,-0.374487 -0.822376,-0.616782 -0.799684,-0.799683 -0.336812,-0.680637 -1.027969,-1.233563 -0.192948,-0.154358 -0.473162,-0.21012 -0.616782,-0.411188 -0.214508,-0.30031 -0.246143,-0.697879 -0.411188,-1.02797 -0.153241,-0.306481 -0.580081,-0.374487 -0.822376,-0.616782 -0.310289,-0.310288 -0.536799,-0.694796 -0.822376,-1.027969 -0.514989,-0.600822 -0.669203,-0.446136 -1.233563,-0.822376 -0.08064,-0.05376 -0.118908,-0.162251 -0.205594,-0.205594 -0.0613,-0.03065 -0.205594,0.06853 -0.205594,0 0,-0.06853 0.137063,0 0.205594,0"
     id="path4013"
     inkscape:connector-curvature="0" />
  <path
     style="fill:none;stroke:#000000;stroke-width:1px;stroke-linecap:butt;stroke-linejoin:miter;stroke-opacity:1"
     d="m 94.162021,35.773344 c 0.342656,0.54825 0.685313,1.096501 1.027969,1.644751 0.274125,0.753845 0.440331,1.55622 0.822376,2.261534 0.516088,0.952779 1.282446,1.749885 1.850345,2.672721 0.53031,0.861752 0.975079,1.773568 1.439158,2.672721 0.632545,1.225555 1.093661,2.547642 1.850341,3.700691 0.69332,1.056476 1.81132,1.798158 2.46713,2.878315 0.52873,0.87085 0.57235,1.96708 1.02797,2.878315 0.23937,0.478739 0.77167,0.763673 1.02797,1.233563 0.16733,0.306774 0.12084,0.688961 0.20559,1.02797 0.28635,1.145377 0.035,0.155227 0.61679,1.02797 0.038,0.05702 0,0.137062 0,0.205593 0,0.205594 -0.0919,0.432893 0,0.616782 0.12667,0.253356 0.53759,0.09444 0.61678,0.411188 0.0499,0.199456 0,0.411188 0,0.616782 0,0.255496 0.0408,1.194245 0,1.439157 -0.0713,0.427533 -0.29212,0.816811 -0.41119,1.233564 -0.28911,1.01187 -0.0693,0.68661 -0.61678,1.644751 -0.12259,0.214537 -0.26293,0.419108 -0.41119,0.616782 -0.0581,0.07753 -0.16225,0.118908 -0.20559,0.205594 -0.0306,0.0613 0,0.137063 0,0.205594 -0.13707,0.137063 -0.27413,0.274125 -0.41119,0.411188"
     id="path4015"
     inkscape:connector-curvature="0" />
  <path
     style="fill:none;stroke:#000000;stroke-width:1px;stroke-linecap:butt;stroke-linejoin:miter;stroke-opacity:1"
     d="m 80.181633,55.510361 c 0,0.342657 0,0.685313 0,1.02797 0,0.205594 -0.03678,0.414504 0,0.616782 0.237061,1.303832 0.521304,1.637106 0.616782,2.878315 0.162254,2.109297 -0.317766,0.920402 0.411188,3.289503 0.09013,0.292928 0.290459,0.540675 0.411188,0.822375 0.290753,0.678426 0.553411,1.368585 0.822375,2.05594 0.347831,0.8889 0.688162,1.780724 1.02797,2.672721 0.208447,0.547172 0.354924,1.121036 0.616782,1.644751 0.425777,0.851555 0.959438,1.644752 1.439157,2.467127 0.133452,0.228775 1.718045,3.058386 2.261534,3.700691 0.610062,0.720983 1.545061,1.545062 2.261533,2.261533"
     id="path4017"
     inkscape:connector-curvature="0" />
  <path
     style="fill:none;stroke:#000000;stroke-width:1px;stroke-linecap:butt;stroke-linejoin:miter;stroke-opacity:1"
     d="m 50.370513,69.490749 c 1.989507,1.989507 0.624621,0.236949 0.822376,1.027969 0.111476,0.445906 0.281783,0.898565 0.616782,1.233564 0.242294,0.242295 0.640768,0.326209 0.822375,0.616782 0.185205,0.296326 0.0829,0.700776 0.205594,1.027969 0.08676,0.231361 0.300685,0.395775 0.411188,0.616782 1.215535,3.038837 -0.438903,-0.838922 1.02797,1.850346 0.249922,0.45819 0.357837,0.986005 0.616782,1.439157 1.30814,2.289245 0.793242,0.793243 2.878315,2.878315 0.741512,0.741512 2.765268,3.485986 3.70069,4.317473 0.776692,0.690392 2.8912,2.005725 3.906285,2.467127 0.868973,0.394987 1.792992,0.657557 2.672721,1.027969 0.423696,0.178399 0.787568,0.505283 1.233564,0.616782 0.398911,0.09973 0.822376,0 1.233563,0 0.205594,0 0.421739,0.06502 0.616782,0 0.09195,-0.03065 0.137063,-0.137062 0.205594,-0.205594 0.06853,-0.06853 0.162251,-0.118908 0.205594,-0.205594 0.03065,-0.0613 0,-0.137062 0,-0.205594 0,-0.342656 0,-0.685313 0,-1.027969"
     id="path4019"
     inkscape:connector-curvature="0" />
  <path
     style="fill:none;stroke:#000000;stroke-width:1px;stroke-linecap:butt;stroke-linejoin:miter;stroke-opacity:1"
     d="m 26.110429,58.59427 c 0.845425,0.714007 0.922664,0.917645 1.233564,1.850346 0.137062,0.411188 0.203639,0.853057 0.411188,1.233563 0.210127,0.385234 0.54825,0.685313 0.822375,1.02797 0.274126,0.685313 0.492286,1.395758 0.822376,2.055939 0.153241,0.306482 0.411188,0.548251 0.616782,0.822376 0.411188,0.54825 0.822376,1.096501 1.233564,1.644751 0.479719,0.47972 1.015348,0.909397 1.439157,1.439158 0.40388,0.50485 0.604542,1.156181 1.02797,1.644751 0.477115,0.550518 1.129625,0.924032 1.644751,1.439158 0.515126,0.515126 0.870296,1.189662 1.439158,1.644751 0.478643,0.382915 1.122716,0.501124 1.644751,0.822376 0.37372,0.229982 0.618404,0.664851 1.02797,0.822376 0.515689,0.198342 1.11089,0.06323 1.644751,0.205594 0.504297,0.134479 0.944022,0.451736 1.439158,0.616782 0.130029,0.04334 0.274125,0 0.411188,0 0.205594,0 0.411187,0 0.616781,0 0.616782,0 1.233564,0 1.850346,0"
     id="path4021"
     inkscape:connector-curvature="0" />
  <path
     style="fill:none;stroke:#000000;stroke-width:1px;stroke-linecap:butt;stroke-linejoin:miter;stroke-opacity:1"
     d="m 122.94517,44.613883 c 1.13109,1.413864 0.57897,0.662854 1.64475,2.261533 0.27413,0.411188 0.60137,0.79155 0.82238,1.233564 0.12636,0.252731 0.1244,0.55173 0.20559,0.822376 0.12455,0.41515 0.24616,0.83278 0.41119,1.233563 0.31529,0.765695 0.76611,1.47596 1.02797,2.261533 0.34372,1.031155 0.70531,3.339984 1.02797,4.523067 0.73397,2.691217 1.10654,3.055872 1.64475,5.962224 0.13783,0.744298 0.0414,1.522605 0.20559,2.261533 0.11322,0.509491 0.51443,0.927374 0.61679,1.439158 0.13363,0.66818 -0.0835,1.921018 0,2.672721 0.0312,0.280833 0.16563,0.542653 0.20559,0.822375 0.0291,0.203528 0,0.411188 0,0.616782 0,0.391741 0.0433,0.654564 -0.20559,1.02797 -0.23992,0.359875 -1.31108,1.248488 -1.64476,1.439157 -0.18816,0.107521 -0.43095,0.09409 -0.61678,0.205594 -0.16621,0.09973 -0.27412,0.274126 -0.41118,0.411188 -0.2056,0.205594 -0.41119,0.411188 -0.61679,0.616782"
     id="path4023"
     inkscape:connector-curvature="0" />
  <path
     style="fill:none;stroke:#000000;stroke-width:1px;stroke-linecap:butt;stroke-linejoin:miter;stroke-opacity:1"
     d="m 110.40394,41.118786 c 0.44865,-1.121616 0.36165,-1.376651 1.64475,-2.055939 0.70892,-0.375311 1.55262,-0.447065 2.26154,-0.822376 0.47304,-0.250435 0.77122,-0.758274 1.23356,-1.02797 0.37439,-0.218392 0.82773,-0.259 1.23356,-0.411187 0.61545,-0.230794 0.31069,-0.258141 1.02797,-0.616782 0.0613,-0.03065 0.13707,0 0.2056,0 0.20559,0 0.41118,0 0.61678,0 0.20559,0 0.41119,0 0.61678,0 0.20559,0 0.41399,-0.0338 0.61678,0 0.84236,0.140393 0.42626,0.165496 1.02797,0.616782 0.8309,0.623172 0.0977,0.03255 0.61678,0.205593 0.14538,0.04846 0.27413,0.137063 0.41119,0.205594"
     id="path4025"
     inkscape:connector-curvature="0" />
  <path
     style="fill:none;stroke:#000000;stroke-width:1px;stroke-linecap:butt;stroke-linejoin:miter;stroke-opacity:1"
     d="m 79.359257,42.557944 c 0.06853,-0.342657 0.148146,-0.683282 0.205594,-1.02797 0.04379,-0.262722 0,-0.555092 0,-0.822376 0,-0.685313 0,-1.370626 0,-2.055939 0,-0.401056 -0.06649,-1.281979 0.205594,-1.644752 0.498395,-0.664526 1.857003,-1.238001 2.467128,-1.644751 0.365115,-0.24341 0.657758,-0.586787 1.027969,-0.822376 0.38785,-0.246813 0.828792,-0.398827 1.233564,-0.616781 0.486475,-0.261949 0.944971,-0.575283 1.439157,-0.822376 0.193836,-0.09692 0.411188,-0.137063 0.616782,-0.205594 0.205594,-0.06853 0.406537,-0.153033 0.616782,-0.205594 0.339009,-0.08475 0.696459,-0.09509 1.02797,-0.205594 0.09194,-0.03065 0.111569,-0.182088 0.205593,-0.205594 0.199456,-0.04986 0.411188,0 0.616782,0 0.479719,0 0.989983,-0.168441 1.439158,0 0.694081,0.260281 1.204264,0.870143 1.850345,1.233564 2.467163,1.387779 0.454136,0.09038 2.467127,0.822375 1.780433,0.64743 0.701457,0.616782 1.439158,0.616782"
     id="path4027"
     inkscape:connector-curvature="0" />
  <path
     style="fill:none;stroke:#000000;stroke-width:1px;stroke-linecap:butt;stroke-linejoin:miter;stroke-opacity:1"
     d="m 44.202695,45.641853 c 0,-2.741253 0,-5.482505 0,-8.223758 0,-0.753844 0,-1.507688 0,-2.261533 0,-0.137063 0,-0.274125 0,-0.411188 0,-0.06853 -0.02545,-0.141964 0,-0.205594 0.113825,-0.28456 0.253505,-0.55957 0.411188,-0.822375 0.04986,-0.08311 0.137063,-0.137063 0.205594,-0.205594 0.06853,-0.06853 0.11365,-0.174946 0.205594,-0.205594 0.130029,-0.04334 0.274125,0 0.411188,0 0.205594,0 0.411188,0 0.616782,0 0.205594,0 0.41518,0.04032 0.616781,0 0.256437,-0.05129 0.889576,-0.547585 1.02797,-0.616782 0.267008,-0.454137 0.703521,-0.07581 1.02797,-0.205594 1.493769,-0.597508 -0.356954,-0.31743 1.439157,-0.616782 0.135198,-0.02253 0.274125,0 0.411188,0 0.205594,0 0.411188,0 0.616782,0 0.411188,0 0.822376,0 1.233563,0 1.644752,0 3.289503,0 4.934255,0 2.330064,0 4.660129,0 6.990193,0 0.616782,0 1.235695,-0.05122 1.850346,0 0.215966,0.018 0.406537,0.153033 0.616782,0.205594 1.413881,0.35347 0.61208,-0.0023 1.439157,0.411188"
     id="path4029"
     inkscape:connector-curvature="0" />
  <path
     style="fill:none;stroke:#000000;stroke-width:1px;stroke-linecap:butt;stroke-linejoin:miter;stroke-opacity:1"
     d="m 108.75919,81.004009 c 0.5538,-0.110761 1.71092,-0.412073 2.26153,-0.205594 0.74832,0.28062 1.29775,0.980832 2.05594,1.233563 0.71811,0.23937 1.53014,0.01056 2.26154,0.205594 0.33108,0.08829 0.5645,0.391141 0.82237,0.616782 0.45497,0.398099 1.12868,1.10141 1.43916,1.644752 0.10752,0.188161 0.10867,0.422946 0.20559,0.616781 0.11051,0.221007 0.28406,0.404902 0.41119,0.616782 0.0788,0.131403 0.11365,0.288596 0.20559,0.411188 0.11631,0.155069 0.31146,0.244975 0.41119,0.411188 0.62687,0.145544 0.0792,0.569645 0.2056,0.822376 0.1105,0.221006 0.31942,0.387361 0.41118,0.616781 0.0509,0.12726 0,0.274126 0,0.411188 0,0.411188 -0.051,0.825551 0,1.233564 0.035,0.28038 0.0908,0.564167 0.2056,0.822376 0.2699,0.607277 0.73901,0.977807 0.82237,1.644751 0.085,0.680021 -0.0757,1.374818 0,2.055939 -0.77242,0.456082 0.34931,0.780463 0.41119,1.02797 0.0499,0.199455 0,0.411188 0,0.616782 0,0.06853 -0.0217,0.140579 0,0.205594 0.0485,0.145377 0.15714,0.265811 0.2056,0.411188 0.0397,0.119095 0,0.644211 0,0.822375"
     id="path4031"
     inkscape:connector-curvature="0" />
  <path
     style="fill:none;stroke:#000000;stroke-width:1px;stroke-linecap:butt;stroke-linejoin:miter;stroke-opacity:1"
     d="m 102.59137,94.367614 c 0,0.890907 0,1.781814 0,2.672721 0,0.205594 -0.0338,0.413986 0,0.616782 0.17921,1.075229 0.13078,0.217969 0.61678,1.02797 0.1115,0.185831 0.11758,0.418745 0.2056,0.616782 0.18671,0.420099 0.44604,0.806721 0.61678,1.233561 0.10494,0.26235 0.10638,0.55781 0.20559,0.82238 0.25088,0.66899 0.85605,1.52741 1.23357,2.05594 0.0563,0.0789 0.14505,0.12991 0.20559,0.20559 0.97745,1.22181 0.23626,0.44185 1.02797,1.23356 0.40641,0.40642 1.49339,1.56908 2.05594,1.85035 0.31255,0.15628 0.70541,0.0712 1.02797,0.20559 0.51002,0.21251 0.91107,0.65989 1.43916,0.82238 0.393,0.12092 0.83036,-0.0806 1.23356,0 0.30053,0.0601 0.52006,0.3608 0.82238,0.41119 0.54079,0.0901 1.0965,0 1.64475,0 0.34265,0 0.68531,0 1.02797,0 1.71328,0 3.42656,0 5.13985,0"
     id="path4033"
     inkscape:connector-curvature="0" />
  <path
     style="fill:none;stroke:#000000;stroke-width:1px;stroke-linecap:butt;stroke-linejoin:miter;stroke-opacity:1"
     d="m 129.93536,77.508912 c 0.34043,0.510596 0.8381,0.07377 1.23357,0.205594 0.0919,0.03065 0.13706,0.137063 0.20559,0.205594 0.17678,0.176777 0.93958,0.939581 1.02797,1.027969 0.2056,0.205594 0.41119,0.411188 0.61678,0.616782 0.34266,0.342657 0.73046,0.645458 1.02797,1.02797 0.18816,0.241922 0.24876,0.56248 0.41119,0.822376 0.18161,0.290572 0.39742,0.559139 0.61678,0.822375 0.12409,0.148909 0.3245,0.237816 0.41119,0.411188 0.12637,0.252731 0.0792,0.569645 0.20559,0.822376 0.23643,0.472856 0.54833,0.274727 0.61679,0.822376 0.051,0.408012 -0.0997,0.834652 0,1.233563 0.047,0.188049 0.29488,0.256119 0.41118,0.411188 0.41606,0.554744 -0.003,0.336917 0.41119,1.02797 0.0997,0.166213 0.30367,0.249907 0.41119,0.411188 0.038,0.05702 0,0.137062 0,0.205594 0,0.137062 -0.0613,0.288595 0,0.411187 0.0867,0.173372 0.30367,0.249907 0.41119,0.411188 0.038,0.05702 0,0.137063 0,0.205594 0,0.137063 0,0.274125 0,0.411188 0,0.685313 0,1.370626 0,2.055939"
     id="path4035"
     inkscape:connector-curvature="0" />
</svg>
